<svg width="31" height="31" viewBox="0 0 31 31" fill="none" xmlns="http://www.w3.org/2000/svg">
<circle cx="15.5509" cy="15.1441" r="15.1525" fill="#E4EAFF"/>
<path d="M21.5452 10.3914L20.5737 9.21283C20.3772 8.98133 20.0861 8.83051 19.7599 8.83051H11.3418C11.0156 8.83051 10.7245 8.98133 10.5316 9.21283L9.56 10.3914C9.35656 10.6369 9.2373 10.9455 9.2373 11.2858V20.0546C9.2373 20.8298 9.86515 21.4576 10.6403 21.4576H20.4614C21.2366 21.4576 21.8644 20.8298 21.8644 20.0546V11.2858C21.8644 10.9455 21.7452 10.6369 21.5452 10.3914ZM15.5509 19.0024L11.6926 15.1441H14.1479V13.7411H16.9539V15.1441H19.4092L15.5509 19.0024ZM10.728 10.2335L11.2997 9.53201H19.7178L20.3737 10.2335H10.728Z" fill="#0D38CE"/>
</svg>
