<svg width="31" height="31" viewBox="0 0 31 31" fill="none" xmlns="http://www.w3.org/2000/svg">
<circle cx="15.7439" cy="15.7378" r="15.1098" fill="#E4EAFF"/>
<g clip-path="url(#clip0_266_1171)">
<path fill-rule="evenodd" clip-rule="evenodd" d="M13.2138 17.1386C12.215 17.1386 11.2572 17.5353 10.551 18.2415C9.84486 18.9477 9.44812 19.9055 9.44812 20.9042H16.9833C16.9833 20.4097 16.8859 19.9201 16.6967 19.4632C16.5074 19.0063 16.2301 18.5912 15.8804 18.2415C15.5307 17.8919 15.1156 17.6145 14.6587 17.4253C14.2019 17.236 13.7122 17.1386 13.2177 17.1386H13.2138Z" fill="#0E38CA" fill-opacity="0.65"/>
<path d="M20.5023 17.4745C19.3387 17.0332 19.409 17.2103 19.409 16.3924C19.409 15.864 19.6704 16.0579 19.8362 15.0517C19.9008 14.6554 19.9542 14.9196 20.0919 14.2844C20.165 13.9528 20.0414 13.9275 20.0582 13.7701C20.0723 13.6127 20.0863 13.4694 20.1144 13.1461C20.1482 12.7414 19.7884 11.6846 18.5012 11.6846C17.2139 11.6846 16.8541 12.7414 16.8879 13.1461C16.9132 13.4722 16.93 13.6127 16.9441 13.7701C16.9581 13.9275 16.8373 13.9528 16.9104 14.2844C17.0481 14.9196 17.1015 14.6526 17.1661 15.0517C17.3319 16.0579 17.5905 15.8668 17.5905 16.3924C17.5905 16.769 17.6776 16.9264 17.1717 17.1653C17.3235 17.2187 17.5006 17.2833 17.7142 17.3648C19.2431 17.9466 19.2066 18.5116 19.246 18.7786C19.2741 18.9613 19.2881 20.4171 19.2937 20.9371H22.0397C22.0397 20.9371 22.0397 18.6746 21.9975 18.4104C21.9666 18.2024 21.6884 17.927 20.5023 17.4745Z" fill="#0E38CA"/>
<path d="M18.5825 20.937C18.5825 20.937 18.5825 20.5407 18.5769 20.0826C18.5713 19.5598 18.5573 18.9584 18.5291 18.7785C18.487 18.5115 18.1272 18.1545 16.6011 17.5727C16.3903 17.4941 16.2132 17.4294 16.0586 17.3732C15.1227 17.0415 15.1902 16.9319 15.1902 16.0241C15.1902 15.3411 15.5274 15.7852 15.741 14.4895C15.8254 13.978 15.8928 14.3181 16.0699 13.5002C16.1654 13.073 16.0052 13.0393 16.0249 12.8341C16.0446 12.6289 16.0643 12.4462 16.098 12.0274C16.143 11.5075 15.6792 10.1415 14.0153 10.1415C12.3515 10.1415 11.8905 11.5047 11.9327 12.0274C11.9664 12.4462 11.9861 12.6289 12.0086 12.8341C12.0282 13.0393 11.868 13.0702 11.9636 13.5002C12.1435 14.3181 12.2109 13.978 12.2953 14.4895C12.5089 15.7852 12.8433 15.3411 12.8433 16.0241C12.8433 17.0809 12.9361 17.0022 11.4324 17.5727C9.90625 18.1545 9.54649 18.5115 9.50433 18.7785C9.44812 19.1186 9.44812 20.937 9.44812 20.937H18.5825Z" fill="#0E38CA"/>
</g>
<defs>
<clipPath id="clip0_266_1171">
<rect width="12.5915" height="12.5915" fill="white" transform="translate(9.44812 9.44208)"/>
</clipPath>
</defs>
</svg>
