<svg width="31" height="31" viewBox="0 0 31 31" fill="none" xmlns="http://www.w3.org/2000/svg">
<circle cx="15.5509" cy="15.1441" r="15.1525" fill="#E4EAFF"/>
<path d="M9.98518 11.6186H11.8714C11.8201 11.2869 11.7946 10.9517 11.7949 10.6161V10.4929L12.1008 10.3144H9.23749C9.23123 10.7148 9.384 11.1013 9.66231 11.3892C9.75909 11.4799 9.8677 11.5571 9.98518 11.6186ZM12.4704 13.5643H10.9793C10.6824 13.569 10.3894 13.4957 10.1296 13.3519H9.4584C9.4584 13.5516 9.49774 13.7494 9.57417 13.9339C9.6506 14.1185 9.76263 14.2861 9.90385 14.4273C10.1891 14.7126 10.5759 14.8728 10.9793 14.8728H13.2903C12.9641 14.4721 12.6887 14.0326 12.4704 13.5643ZM18.8385 10.6161C18.8389 10.9517 18.8133 11.2869 18.7621 11.6186H20.6483C20.7585 11.5542 20.8599 11.4756 20.9499 11.385C21.2282 11.0971 21.381 10.7106 21.3747 10.3102H18.5327L18.8385 10.4886V10.6161ZM12.1263 11.8311C12.1243 11.8198 12.1243 11.8083 12.1263 11.7971C12.1242 11.8083 12.1242 11.8198 12.1263 11.8311C12.1263 11.8311 12.1263 11.8565 12.1263 11.8693C12.1284 11.8566 12.1284 11.8437 12.1263 11.8311ZM12.5681 13.267C12.5776 13.296 12.589 13.3244 12.6021 13.3519L12.6276 13.4072V13.3519L12.5681 13.267ZM9.4584 11.8311C9.4584 12.2344 9.61863 12.6213 9.90385 12.9065C10.1891 13.1917 10.5759 13.3519 10.9793 13.3519H12.3727C12.1577 12.8662 12.0049 12.3551 11.9181 11.8311H9.4584ZM18.2608 13.3519H19.6542C20.0576 13.3519 20.4444 13.1917 20.7296 12.9065C21.0148 12.6213 21.1751 12.2344 21.1751 11.8311H18.7153C18.6285 12.3551 18.4758 12.8662 18.2608 13.3519ZM19.6542 13.5643H18.1631C17.9448 14.0326 17.6694 14.4721 17.3431 14.8728H19.6542C20.0576 14.8728 20.4444 14.7126 20.7296 14.4273C21.0148 14.1421 21.1751 13.7553 21.1751 13.3519H20.4826C20.2291 13.4922 19.9439 13.5653 19.6542 13.5643Z" fill="#1A49EE"/>
<path d="M12.6276 13.4072V13.4284C13.0476 14.3226 13.6632 15.1109 14.4288 15.7352C14.5649 15.8473 14.7067 15.9522 14.8536 16.0496C14.9981 16.1473 15.1468 16.245 15.2785 16.3342C15.4314 16.245 15.5801 16.1473 15.7033 16.0496C15.8502 15.9522 15.992 15.8473 16.1281 15.7352C16.7509 15.2309 17.2751 14.6159 17.6745 13.9212C17.7679 13.7598 17.8529 13.5898 17.9336 13.4199V13.3944V13.4199L17.9591 13.3647V13.3307C18.0877 13.0442 18.1956 12.7489 18.282 12.4471V12.4088C18.333 12.2304 18.3712 12.052 18.4052 11.8693C18.4805 11.4701 18.5189 11.0648 18.5199 10.6585L15.7415 8.94225C15.6165 8.86908 15.4743 8.83051 15.3295 8.83051C15.1846 8.83051 15.0424 8.86908 14.9174 8.94225L12.0073 10.6161C12.0077 11.5806 12.2194 12.5333 12.6276 13.4072Z" fill="#1A49EE"/>
<path d="M15.4229 16.5339L15.3167 16.5976L15.2105 16.5339C14.943 16.3799 14.6861 16.2081 14.4416 16.0198V17.4388H16.1919V16.0198C15.9473 16.2081 15.6904 16.3799 15.4229 16.5339ZM18.1291 19.7201H12.5044C12.3339 19.7201 12.1702 19.7875 12.0493 19.9077C11.9283 20.0279 11.8598 20.191 11.8586 20.3615V21.2112C11.8586 21.2439 11.8651 21.2763 11.8778 21.3065C11.8904 21.3367 11.909 21.364 11.9323 21.3869C11.9556 21.4099 11.9833 21.4279 12.0137 21.4401C12.0441 21.4522 12.0766 21.4582 12.1093 21.4576H18.5241C18.5569 21.4582 18.5894 21.4522 18.6197 21.4401C18.6501 21.4279 18.6778 21.4099 18.7011 21.3869C18.7245 21.364 18.743 21.3367 18.7556 21.3065C18.7683 21.2763 18.7748 21.2439 18.7748 21.2112V20.3615C18.7737 20.191 18.7051 20.0279 18.5842 19.9077C18.4632 19.7875 18.2996 19.7201 18.1291 19.7201ZM13.5792 18.539C13.4946 18.539 13.4108 18.5558 13.3327 18.5883C13.2546 18.6208 13.1837 18.6684 13.1241 18.7284C13.0645 18.7885 13.0173 18.8597 12.9853 18.938C12.9533 19.0163 12.9371 19.1002 12.9377 19.1848V19.4864C12.9356 19.4991 12.9356 19.512 12.9377 19.5246H17.6915C17.6935 19.512 17.6935 19.4991 17.6915 19.4864V19.1848C17.692 19.1005 17.676 19.017 17.6443 18.939C17.6126 18.8609 17.5658 18.7899 17.5066 18.7299C17.4474 18.67 17.377 18.6223 17.2994 18.5895C17.2218 18.5567 17.1385 18.5396 17.0542 18.539H13.5792ZM13.7194 18.1992V18.2714C13.7173 18.2841 13.7173 18.297 13.7194 18.3096H16.9056C16.9076 18.297 16.9076 18.2841 16.9056 18.2714V18.1992C16.9056 18.0291 16.838 17.8659 16.7177 17.7456C16.5974 17.6253 16.4342 17.5577 16.2641 17.5577H14.3524C14.1837 17.5599 14.0227 17.6285 13.9042 17.7486C13.7858 17.8686 13.7194 18.0305 13.7194 18.1992Z" fill="#1A49EE"/>
</svg>
