<svg width="31" height="31" viewBox="0 0 31 31" fill="none" xmlns="http://www.w3.org/2000/svg">
<circle cx="15.1954" cy="15.7769" r="15.1278" fill="#E4EAFF"/>
<path d="M15.0574 22.0801C15.7685 22.0801 16.3504 21.4983 16.3504 20.7872H13.7644C13.7644 21.4983 14.3398 22.0801 15.0574 22.0801ZM18.9363 18.2012V14.9688C18.9363 12.9841 17.8761 11.3226 16.0271 10.883V10.4434C16.0271 9.90678 15.594 9.47363 15.0574 9.47363C14.5208 9.47363 14.0877 9.90678 14.0877 10.4434V10.883C12.2322 11.3226 11.1785 12.9776 11.1785 14.9688V18.2012L10.3445 19.0352C9.93721 19.4425 10.2217 20.1407 10.797 20.1407H19.3113C19.8867 20.1407 20.1776 19.4425 19.7703 19.0352L18.9363 18.2012Z" fill="#0D38CE"/>
</svg>
