<svg width="26" height="26" viewBox="0 0 26 26" fill="none" xmlns="http://www.w3.org/2000/svg">
<g clip-path="url(#clip0_266_1146)">
<path d="M13.0582 25.933C20.0335 25.933 25.6882 20.2784 25.6882 13.3031C25.6882 6.32773 20.0335 0.673096 13.0582 0.673096C6.08285 0.673096 0.428223 6.32773 0.428223 13.3031C0.428223 20.2784 6.08285 25.933 13.0582 25.933Z" fill="url(#paint0_linear_266_1146)"/>
<path d="M5.13106 13.9208C6.6075 13.1076 8.25561 12.4288 9.79552 11.7466C12.4448 10.6291 15.1045 9.53106 17.7911 8.50877C18.3138 8.33459 19.2531 8.16427 19.3451 8.93888C19.2947 10.0354 19.0873 11.1255 18.945 12.2155C18.5838 14.6127 18.1664 17.0017 17.7593 19.391C17.6191 20.1868 16.6221 20.5988 15.9842 20.0895C14.4511 19.054 12.9063 18.0285 11.3928 16.9689C10.897 16.4652 11.3567 15.7417 11.7995 15.382C13.0622 14.1376 14.4013 13.0804 15.598 11.7717C15.9208 10.9922 14.967 11.6491 14.6524 11.8504C12.9238 13.0416 11.2375 14.3056 9.41496 15.3525C8.48402 15.865 7.399 15.427 6.46849 15.1411C5.63419 14.7957 4.41159 14.4476 5.13098 13.9209L5.13106 13.9208Z" fill="white"/>
</g>
<defs>
<linearGradient id="paint0_linear_266_1146" x1="17.2692" y1="4.88393" x2="10.9542" y2="19.6181" gradientUnits="userSpaceOnUse">
<stop stop-color="#37AEE2"/>
<stop offset="1" stop-color="#1E96C8"/>
</linearGradient>
<clipPath id="clip0_266_1146">
<rect width="25.2599" height="25.2599" fill="white" transform="translate(0.428223 0.673096)"/>
</clipPath>
</defs>
</svg>
