<svg width="26" height="26" viewBox="0 0 26 26" fill="none" xmlns="http://www.w3.org/2000/svg">
<g clip-path="url(#clip0_266_1149)">
<path d="M0.486206 13.3031C0.486206 6.32774 6.14085 0.673096 13.1162 0.673096C20.0915 0.673096 25.7461 6.32774 25.7461 13.3031C25.7461 20.2784 20.0915 25.933 13.1162 25.933C6.14085 25.933 0.486206 20.2784 0.486206 13.3031Z" fill="#4C6C91"/>
<path d="M13.7768 17.4478C13.7768 17.4478 14.0199 17.4213 14.1445 17.29C14.2584 17.1697 14.2545 16.9427 14.2545 16.9427C14.2545 16.9427 14.2393 15.8826 14.7408 15.7261C15.235 15.5721 15.8695 16.7512 16.5429 17.2046C17.0516 17.5474 17.4377 17.4724 17.4377 17.4724L19.2372 17.4478C19.2372 17.4478 20.1782 17.3909 19.7321 16.6646C19.6952 16.605 19.4718 16.1271 18.3945 15.1452C17.2657 14.1175 17.4173 14.2837 18.776 12.5057C19.6036 11.423 19.9343 10.762 19.8309 10.4793C19.7327 10.209 19.1239 10.2808 19.1239 10.2808L17.0984 10.2931C17.0984 10.2931 16.9481 10.273 16.8368 10.3383C16.7281 10.4024 16.6576 10.5518 16.6576 10.5518C16.6576 10.5518 16.3373 11.3893 15.9097 12.1021C15.0077 13.6052 14.6472 13.6848 14.4996 13.5916C14.1563 13.3737 14.242 12.7172 14.242 12.2509C14.242 10.7936 14.4674 10.1863 13.8038 10.0292C13.5837 9.97679 13.4217 9.94248 12.8582 9.93669C12.1354 9.92953 11.5239 9.93927 11.1774 10.1055C10.9468 10.2161 10.7688 10.4631 10.8776 10.4774C11.0113 10.4948 11.3144 10.5576 11.4752 10.7723C11.6828 11.0498 11.6755 11.672 11.6755 11.672C11.6755 11.672 11.7948 13.3873 11.3968 13.6001C11.124 13.7463 10.7497 13.4481 9.9452 12.084C9.53341 11.3855 9.2224 10.6132 9.2224 10.6132C9.2224 10.6132 9.1624 10.469 9.055 10.3914C8.92522 10.2976 8.74398 10.2685 8.74398 10.2685L6.81933 10.2808C6.81933 10.2808 6.53005 10.2885 6.42396 10.4121C6.32976 10.5214 6.4167 10.7484 6.4167 10.7484C6.4167 10.7484 7.92367 14.2094 9.63024 15.9537C11.1951 17.5526 12.9716 17.4478 12.9716 17.4478H13.7768Z" fill="white"/>
</g>
<defs>
<clipPath id="clip0_266_1149">
<rect width="25.2599" height="25.2599" fill="white" transform="translate(0.486206 0.673096)"/>
</clipPath>
</defs>
</svg>
